<?xml version="1.0" standalone="no"?>
<!DOCTYPE svg PUBLIC "-//W3C//DTD SVG 20010904//EN"
 "http://www.w3.org/TR/2001/REC-SVG-20010904/DTD/svg10.dtd">
<svg version="1.0" xmlns="http://www.w3.org/2000/svg"
 width="1200.000000pt" height="1200.000000pt" viewBox="0 0 1200.000000 1200.000000"
 preserveAspectRatio="xMidYMid meet">
<metadata>
Created by potrace 1.14, written by Peter Selinger 2001-2017
</metadata>
<g transform="translate(0.000000,1200.000000) scale(0.100000,-0.100000)"
fill="#000000" stroke="none">
<path d="M3402 11289 c-1018 -63 -1916 -730 -2276 -1693 -55 -147 -104 -332
-134 -511 l-27 -160 0 -2925 0 -2925 27 -160 c30 -179 79 -364 134 -511 316
-847 1051 -1473 1934 -1648 268 -53 152 -51 3105 -51 2951 0 2834 -2 3101 51
1102 217 1948 1134 2079 2252 22 191 22 5793 0 5984 -130 1109 -969 2026
-2057 2249 -277 56 -89 53 -3038 55 -1493 1 -2775 -2 -2848 -7z"/>
</g>
</svg>
